<?xml version="1.0" encoding="utf-8"?>
<!DOCTYPE svg PUBLIC "-//W3C//DTD SVG 1.1//EN" "http://www.w3.org/Graphics/SVG/1.1/DTD/svg11.dtd">
<svg version="1.1" id="Layer_1" xmlns="http://www.w3.org/2000/svg" xmlns:xlink="http://www.w3.org/1999/xlink" x="0px" y="0px"
	 width="128px" height="49px" viewBox="0 0 128 49" enable-background="new 0 0 128 49" xml:space="preserve">
<defs>
  <style>
    <![CDATA[
        @font-face {
            font-family: OpenSans-SemiBold;
            src: url('../../fonts/OpenSans-Semibold.ttf');
        }
    ]]>
  </style>
</defs>
<g>
	<rect fill="#FFFFFF" width="128" height="49"/>
</g>
<rect fill="#627278" width="5" height="49"/>
<text transform="matrix(1 0 0 1 13 14.4263)" font-family="'OpenSans-Semibold'" font-size="11" id="jqm_text_input_title">Camera Capture Input</text>
<path fill="none" stroke="#BFBFBF" stroke-miterlimit="10" d="M120.406,43.1"/>
<g>
<path fill="none" stroke="black" stroke-width="1"
        d="M 128.00,0.00
           C 128.00,0.00 128.00,49.00 128.00,49.00
             128.00,49.00 0.00,49.00 0.00,49.00
             0.00,49.00 0.00,0.00 0.00,0.00
             0.00,0.00 128.00,0.00 128.00,0.00 Z
           M 62.00,27.00
           C 62.00,27.00 62.00,37.00 62.00,37.00
             62.00,37.00 77.00,37.00 77.00,37.00
             77.00,37.00 77.00,27.00 77.00,27.00
             67.40,23.42 70.72,25.81 62.00,27.00 Z
           M 70.83,34.56
           C 68.26,34.88 65.40,31.57 70.09,29.17
             75.25,30.16 73.29,34.26 70.83,34.56 Z" />
</g>
</svg>