<?xml version="1.0" encoding="utf-8"?>
<!DOCTYPE svg PUBLIC "-//W3C//DTD SVG 1.1//EN" "http://www.w3.org/Graphics/SVG/1.1/DTD/svg11.dtd">
<svg version="1.1" id="Layer_1" xmlns="http://www.w3.org/2000/svg" xmlns:xlink="http://www.w3.org/1999/xlink" x="0px" y="0px"
	 width="128px" height="49px" viewBox="0 0 128 49" enable-background="new 0 0 128 49" xml:space="preserve">
<defs>
  <style>
    <![CDATA[
        @font-face {
            font-family: OpenSans-SemiBold;
            src: url('../../fonts/OpenSans-Semibold.ttf');
        }
    ]]>
  </style>
</defs>
<g>
	<rect fill="#FFFFFF" width="128" height="49"/>
</g>
<rect fill="#627278" width="5" height="49"/>
<text transform="matrix(1 0 0 1 13 14.4263)" font-family="'OpenSans-Semibold'" font-size="11" id="jqm_text_input_title">Video Capture Input</text>
<path fill="none" stroke="#BFBFBF" stroke-miterlimit="10" d="M120.406,43.1"/>
<g>
	<path fill="none" stroke="black" stroke-width="1" d="M 128.00,0.00
           C 128.00,0.00 128.00,49.00 128.00,49.00
             128.00,49.00 0.00,49.00 0.00,49.00
             0.00,49.00 0.00,0.00 0.00,0.00
             0.00,0.00 128.00,0.00 128.00,0.00 Z
           M 50.00,24.00
           C 50.00,24.00 50.00,41.00 50.00,41.00
             50.00,41.00 72.00,41.00 72.00,41.00
             72.00,41.00 73.00,34.00 73.00,34.00
             73.00,34.00 79.00,37.00 79.00,37.00
             79.00,37.00 79.00,26.00 79.00,26.00
             79.00,26.00 72.00,29.00 72.00,29.00
             72.00,29.00 72.00,24.00 72.00,24.00
             72.00,24.00 50.00,24.00 50.00,24.00 Z
           M 62.96,38.22
           C 56.60,40.39 49.65,31.10 58.11,25.74
             69.59,23.14 70.04,35.80 62.96,38.22 Z" />
</g>
</svg>
