<?xml version="1.0" standalone="no"?>
<!DOCTYPE svg PUBLIC "-//W3C//DTD SVG 20010904//EN"
 "http://www.w3.org/TR/2001/REC-SVG-20010904/DTD/svg10.dtd">
<svg version="1.0" xmlns="http://www.w3.org/2000/svg"
 width="260.000000pt" height="117.000000pt" viewBox="0 0 260.000000 117.000000"
 preserveAspectRatio="xMidYMid meet">
<metadata>
Created by potrace 1.13, written by Peter Selinger 2001-2015
</metadata>
<g transform="translate(0.000000,117.000000) scale(0.100000,-0.100000)"
fill="#000000" stroke="none">
<path d="M1343 755 c-59 -30 -87 -67 -103 -139 -25 -112 32 -219 130 -246 48
-13 138 -9 183 9 l28 11 -3 102 -3 103 -82 3 -83 3 0 -31 c0 -29 2 -30 45 -30
l45 0 0 -49 c0 -53 -8 -61 -61 -61 -79 0 -124 58 -117 152 4 49 9 64 35 90 42
41 102 48 168 19 26 -11 50 -21 52 -21 2 0 3 14 1 32 -4 45 -42 69 -119 75
-55 4 -71 1 -116 -22z"/>
<path d="M270 570 l0 -201 38 3 37 3 3 94 3 95 65 -97 c60 -91 66 -97 99 -97
18 0 37 4 40 10 3 5 -21 49 -53 97 -32 49 -61 93 -65 99 -4 7 20 47 53 89 33
43 60 84 60 91 0 10 -13 14 -38 14 -37 0 -41 -3 -98 -87 l-59 -86 -5 84 -5 84
-37 3 -38 3 0 -201z"/>
<path d="M616 754 c-8 -20 -8 -348 0 -368 5 -13 25 -16 120 -16 l114 0 0 30 0
30 -80 0 -80 0 0 60 0 60 70 0 70 0 0 30 0 30 -70 0 -70 0 0 50 0 50 80 0 80
0 0 30 0 30 -114 0 c-95 0 -115 -3 -120 -16z"/>
<path d="M890 760 c0 -6 24 -56 52 -113 48 -94 53 -109 58 -187 l5 -85 40 0
40 0 5 85 c5 78 10 93 58 187 28 57 52 107 52 113 0 5 -17 10 -39 10 -37 0
-39 -2 -64 -57 -14 -32 -31 -71 -37 -88 l-12 -30 -18 40 c-10 22 -27 61 -39
88 -19 45 -22 47 -61 47 -22 0 -40 -5 -40 -10z"/>
<path d="M1666 754 c-8 -20 -8 -348 0 -368 5 -13 25 -16 120 -16 l114 0 0 30
0 30 -80 0 -80 0 0 60 0 60 70 0 70 0 0 30 0 30 -70 0 -70 0 0 50 0 50 80 0
80 0 0 30 0 30 -114 0 c-95 0 -115 -3 -120 -16z"/>
<path d="M1980 751 c-7 -13 -9 -84 -8 -198 l3 -178 35 0 35 0 3 150 3 150 73
-144 c41 -79 80 -147 87 -152 22 -13 75 -11 88 5 8 9 11 70 9 197 l-3 184 -35
0 -35 0 -3 -135 -3 -135 -72 135 -72 135 -47 3 c-39 3 -49 -1 -58 -17z"/>
</g>
</svg>
